<?xml version="1.0" encoding="UTF-8" standalone="no"?>
<!DOCTYPE svg PUBLIC "-//W3C//DTD SVG 1.1//EN"
 "http://www.w3.org/Graphics/SVG/1.1/DTD/svg11.dtd">
<!-- Generated by graphviz version 2.38.0 (20140413.2041)
 -->
<!-- Title: G Pages: 1 -->
<svg width="321pt" height="384pt"
 viewBox="0.00 0.00 320.69 384.00" xmlns="http://www.w3.org/2000/svg" xmlns:xlink="http://www.w3.org/1999/xlink">
<g id="graph0" class="graph" transform="scale(1 1) rotate(0) translate(4 380)">
<title>G</title>
<polygon fill="white" stroke="none" points="-4,4 -4,-380 316.69,-380 316.69,4 -4,4"/>
<g id="clust1" class="cluster"><title>cluster_Global</title>
<path fill="none" stroke="gray" d="M20,-8C20,-8 292.69,-8 292.69,-8 298.69,-8 304.69,-14 304.69,-20 304.69,-20 304.69,-356 304.69,-356 304.69,-362 298.69,-368 292.69,-368 292.69,-368 20,-368 20,-368 14,-368 8,-362 8,-356 8,-356 8,-20 8,-20 8,-14 14,-8 20,-8"/>
<text text-anchor="middle" x="156.345" y="-355.2" font-family="Times,serif" font-size="11.00" fill="gray">Global</text>
</g>
<g id="clust2" class="cluster"><title>cluster_\PHPMailer</title>
<path fill="none" stroke="gray" d="M199.69,-16C199.69,-16 284.69,-16 284.69,-16 290.69,-16 296.69,-22 296.69,-28 296.69,-28 296.69,-328 296.69,-328 296.69,-334 290.69,-340 284.69,-340 284.69,-340 199.69,-340 199.69,-340 193.69,-340 187.69,-334 187.69,-328 187.69,-328 187.69,-28 187.69,-28 187.69,-22 193.69,-16 199.69,-16"/>
<text text-anchor="middle" x="242.19" y="-327.2" font-family="Times,serif" font-size="11.00" fill="gray">PHPMailer</text>
</g>
<g id="clust3" class="cluster"><title>cluster_\PHPMailer\PHPMailer</title>
<path fill="none" stroke="gray" d="M207.69,-24C207.69,-24 276.69,-24 276.69,-24 282.69,-24 288.69,-30 288.69,-36 288.69,-36 288.69,-300 288.69,-300 288.69,-306 282.69,-312 276.69,-312 276.69,-312 207.69,-312 207.69,-312 201.69,-312 195.69,-306 195.69,-300 195.69,-300 195.69,-36 195.69,-36 195.69,-30 201.69,-24 207.69,-24"/>
<text text-anchor="middle" x="242.19" y="-299.2" font-family="Times,serif" font-size="11.00" fill="gray">PHPMailer</text>
</g>
<!-- \\PHPMailer\\PHPMailer\\PHPMailer -->
<g id="node1" class="node"><title>\\PHPMailer\\PHPMailer\\PHPMailer</title>
<polygon fill="none" stroke="black" points="280.69,-284 203.69,-284 203.69,-248 280.69,-248 280.69,-284"/>
<text text-anchor="middle" x="242.19" y="-263.2" font-family="Courier,monospace" font-size="11.00">PHPMailer</text>
</g>
<!-- \\PHPMailer\\PHPMailer\\POP3 -->
<g id="node2" class="node"><title>\\PHPMailer\\PHPMailer\\POP3</title>
<polygon fill="none" stroke="black" points="269.19,-230 215.19,-230 215.19,-194 269.19,-194 269.19,-230"/>
<text text-anchor="middle" x="242.19" y="-209.2" font-family="Courier,monospace" font-size="11.00">POP3</text>
</g>
<!-- \\PHPMailer\\PHPMailer\\OAuth -->
<g id="node3" class="node"><title>\\PHPMailer\\PHPMailer\\OAuth</title>
<polygon fill="none" stroke="black" points="269.19,-176 215.19,-176 215.19,-140 269.19,-140 269.19,-176"/>
<text text-anchor="middle" x="242.19" y="-155.2" font-family="Courier,monospace" font-size="11.00">OAuth</text>
</g>
<!-- \\PHPMailer\\PHPMailer\\Exception -->
<g id="node4" class="node"><title>\\PHPMailer\\PHPMailer\\Exception</title>
<polygon fill="none" stroke="black" points="280.69,-122 203.69,-122 203.69,-86 280.69,-86 280.69,-122"/>
<text text-anchor="middle" x="242.19" y="-101.2" font-family="Courier,monospace" font-size="11.00">Exception</text>
</g>
<!-- Exception -->
<g id="node6" class="node"><title>Exception</title>
<ellipse fill="none" stroke="black" cx="73.8449" cy="-104" rx="57.6901" ry="18"/>
<text text-anchor="middle" x="73.8449" y="-100.3" font-family="Times,serif" font-size="14.00" fill="gray">Exception</text>
</g>
<!-- \\PHPMailer\\PHPMailer\\Exception&#45;&gt;Exception -->
<g id="edge1" class="edge"><title>\\PHPMailer\\PHPMailer\\Exception&#45;&gt;Exception</title>
<path fill="none" stroke="black" d="M203.444,-104C185.238,-104 162.844,-104 141.874,-104"/>
<polygon fill="none" stroke="black" points="141.719,-100.5 131.719,-104 141.719,-107.5 141.719,-100.5"/>
</g>
<!-- \\PHPMailer\\PHPMailer\\SMTP -->
<g id="node5" class="node"><title>\\PHPMailer\\PHPMailer\\SMTP</title>
<polygon fill="none" stroke="black" points="269.19,-68 215.19,-68 215.19,-32 269.19,-32 269.19,-68"/>
<text text-anchor="middle" x="242.19" y="-47.2" font-family="Courier,monospace" font-size="11.00">SMTP</text>
</g>
</g>
</svg>
